# xmcd
#
# Track frame offsets:
#	150
#	14960
#	25387
#	37891
#	50126
#	62195
#	76512
#	89542
#	101331
#	111972
#	122426
#	141785
#	153300
#	164196
#	177026
#	188025
#
# Disc length: 2648 seconds
#
# Revision: 1
# Processed by: cddbd v1.5.1PL0 Copyright (c) Steve Scherf et al.
# Submitted via: MusicWizard 7.1.1b
#
DISCID=d40a5610
DTITLE=Various Artist - All Time Golden Country Hits (2CDs) [CD 2/2)
DYEAR=1975
DGENRE=Country
TTITLE0=Dick Curless - There's A Tombstone Every Mile
TTITLE1=Jody Miller - Queen Of The House
TTITLE2=Hank Thompson - Oklahoma Hills
TTITLE3=Roy Clark - The Tip Of My Fingers
TTITLE4=Wanda Jackson - Stand By Your Man
TTITLE5=Tex Ritter - I Dreamed Of Hillbilly Heaven
TTITLE6=Bobby Austin - Apartment No. 9
TTITLE7=Roy Rogers - Lovenworth
TTITLE8=Buck Owens - Act Naturally
TTITLE9=Ferlin Husky - Just For You
TTITLE10=Bobbie Gentry - Ode To Billy Joe
TTITLE11=Wynn Stewart - It's Such A Pretty World Today
TTITLE12=Faron Young - Hello Walls
TTITLE13=Susan Raye - L. A. International Airport
TTITLE14=Charlie Louvin - See The Big Man Cry
TTITLE15=Tommy Collins - You're For Me
EXTD=(c)1975 Capitol Records, Inc./ crystal Schallplatten GmbH/ EMI 134 EVC52317
EXTT0=
EXTT1=
EXTT2=
EXTT3=
EXTT4=
EXTT5=
EXTT6=
EXTT7=
EXTT8=
EXTT9=
EXTT10=
EXTT11=
EXTT12=
EXTT13=
EXTT14=
EXTT15=
PLAYORDER=
